<svg id="Layer_4" data-name="Layer 4" xmlns="http://www.w3.org/2000/svg" viewBox="0 0 150 150"><defs><style>.cls-1{fill-rule:evenodd;}</style></defs><title>Artboard 1</title><path class="cls-1" d="M121.37,73.88H92c1.62-3.24,3.15-6.16,4.56-9.25,3.53-7.69,6.31-15.71,6.93-24.25a29.29,29.29,0,0,0-.24-6.94,26.41,26.41,0,0,0-6.18-13.3,26.84,26.84,0,0,0-16.61-9.26c-1.11-.16-1.63-.15-3.29-.27l-1.43,0c-.54,0-.42,0-.63,0a26.63,26.63,0,0,0-17.63,7.67A26.31,26.31,0,0,0,49.3,36a39.94,39.94,0,0,0,.93,10.73,85.81,85.81,0,0,0,6.62,19.15c1.25,2.66,2.61,4.76,4,8H29L12.21,130.59H139.79ZM76.47,23.36A14.6,14.6,0,1,1,61.72,38,14.66,14.66,0,0,1,76.47,23.36ZM87.26,125.73H20.38l7.25-25.16C34,98,49.18,93.18,61,99.08c13.36,6.68,29.84,5.66,33.91,5.3L87.39,125.2Zm-15-34c1.33,1.85,2.71,3.57,4.07,5.4.08-.07.1.06.11,0A178.41,178.41,0,0,0,89.2,78.74h15.12l-8.7,23.8a57.07,57.07,0,0,1-35.14-5.43C48.15,91.73,35.87,94.4,28.58,97L34,78.74H63.64A127.77,127.77,0,0,0,72.3,91.75Zm33.85-13h11.26l15.16,47H89.05Z"/></svg>