<svg id="Layer_2" data-name="Layer 2" xmlns="http://www.w3.org/2000/svg" viewBox="0 0 150 150"><defs><style>.cls-1{fill-rule:evenodd;}</style></defs><title>Artboard 1</title><path class="cls-1" d="M132,53.19C129.37,38.44,121.35,27.08,108.17,20c-16-8.6-32-7.62-47.5,1.46A42.65,42.65,0,0,0,40.1,48.73a51.14,51.14,0,0,0-1.41,16.8A38.55,38.55,0,0,0,45,84.36a5.71,5.71,0,0,1,.4.91c-.49.56-1,1.13-1.45,1.64-2.58,2.59-5.15,5.2-7.76,7.76-6.2,6.07-12.45,12.09-18.63,18.19a32.7,32.7,0,0,0-4.31,5A10.4,10.4,0,0,0,14.57,131a10.54,10.54,0,0,0,13.27,1.21,23.59,23.59,0,0,0,3.33-2.84c6.11-6,12.18-12.07,18.27-18.1,2.45-2.43,4.9-4.86,7.39-7.25a17,17,0,0,1,4.25-3.27c.38.1.49.11.58.15l.84.43a45.46,45.46,0,0,0,24,5.9,45.44,45.44,0,0,0,32.57-13.94C130,82.17,134.8,68.72,132,53.19ZM92.91,93.43c-16.2,3.26-30.51-4.52-37.16-16.62a30.38,30.38,0,0,1-3.62-19.68c.17-1.14.33-2.28.54-3.41,2.73-14.55,15.27-22.95,24.93-25,2.75-.58,5.57-.78,8.37-1.15,17,0,30.21,13.37,32.71,27.05C122.33,74.65,109.2,90.14,92.91,93.43Z"/><path class="cls-1" d="M109.2,50.33a34.33,34.33,0,0,0-9.72-10.94,16.1,16.1,0,0,0-9.31-3.32,4.28,4.28,0,0,1-.62,0,5.08,5.08,0,0,0-5.24,6.45A4.79,4.79,0,0,0,87.59,46,37.51,37.51,0,0,1,93,48.33a14.89,14.89,0,0,1,7.33,9,17.74,17.74,0,0,0,1,2.61,3.51,3.51,0,0,0,2.08,1.81,5.59,5.59,0,0,0,7.62-6.14A16.13,16.13,0,0,0,109.2,50.33Z"/></svg>