<svg id="Layer_3" data-name="Layer 3" xmlns="http://www.w3.org/2000/svg" viewBox="0 0 150 150"><defs><style>.cls-1{fill-rule:evenodd;}</style></defs><title>Artboard 1</title><path class="cls-1" d="M134.06,24.93c-1.16-.06-2.32,0-3.47,0q-45,0-89.9,0c-1.24,0-2.53.29-3.69-.3-.24-.75-.47-1.4-.66-2.07A13.32,13.32,0,0,0,23.3,13c-3.93.08-7.86.06-11.8,0C7.84,13,4.65,13.66,4,19.26c-.22,6.8,3.87,7.68,7.63,7.66,3,0,6,0,9,0,.78,0,1.55.14,2.44.23.21.78.41,1.43.56,2.09q5.88,25,11.74,50c1.11,4.72,2.16,9.46,3.38,14.16,1.37,5.31,4.9,8.54,10.19,9.77a20.31,20.31,0,0,0,4.49.28q31.41,0,62.82,0c.81,0,1.62,0,2.43,0a6.92,6.92,0,0,0,0-13.83c-1-.07-2.08,0-3.12,0q-29.85,0-59.7,0c-1.24,0-2.53.28-3.74-.35-.65-2.35-1.5-4.64-1.43-7.33,1.38,0,2.64-.08,3.9-.08h62.82c.93,0,1.85,0,2.78,0,5.12-.21,8.75-2.6,10.72-7.39.26-.64.49-1.29.73-1.94Q137,58,142.39,43.53c.56-1.52,1.19-3,1.64-4.57A11,11,0,0,0,134.06,24.93ZM52.52,70.61A12.81,12.81,0,0,1,52.37,72c-1.34.78-2.67.54-4.2.26C46.45,66,45.12,59.17,43.66,52.89S40.5,39.75,39.32,33.11H52.11a8.93,8.93,0,0,1,.4,2.58C52.53,47.15,52.53,59.15,52.52,70.61ZM67,72a26,26,0,0,1-10.4,0,7.28,7.28,0,0,1-.21-1.28c0-12,0-24,0-36.47a59.49,59.49,0,0,1,10.5,0A10.42,10.42,0,0,1,67.14,36q0,17.37,0,34.72A8.84,8.84,0,0,1,67,72Zm15.41-1.56A11.11,11.11,0,0,1,82.15,72a32,32,0,0,1-11,.1A8.6,8.6,0,0,1,71,70.6q0-17.31,0-34.63a10.63,10.63,0,0,1,.17-1.31c2.21-.72,5.68-.85,10.81-.38a8.33,8.33,0,0,1,.42,1.87Q82.4,53.3,82.36,70.44Zm15.7-2.79a19.06,19.06,0,0,1-.19,4.41,33.53,33.53,0,0,1-11.35,0c-.48-2.86-.48-34.71,0-37.77a76.07,76.07,0,0,1,10.9-.16c.9,1.21.58,2.52.58,3.73Q98.1,52.76,98.06,67.65Zm15.68,3.53a5.19,5.19,0,0,1-.19.9,37.17,37.17,0,0,1-11.11.1,1.55,1.55,0,0,1-.21-.23.65.65,0,0,1-.11-.32q-.06-17.85-.1-35.7a9.33,9.33,0,0,1,.17-1.32c2.29-.67,6.38-.78,11.18-.31a6.16,6.16,0,0,1,.38,1.52Q113.78,53.51,113.74,71.18ZM135,36.68c-.18.67-.44,1.31-.68,2l-11.24,30.2c-.11.33-.21.66-.34,1-1.09,2.77-1.37,2.91-4.91,2.33-.44-4.29-.34-35,.15-37.84a9.74,9.74,0,0,1,1.52-.22q6.24,0,12.48,0a7.93,7.93,0,0,1,1.38.08A2,2,0,0,1,135,36.68Z"/><path class="cls-1" d="M59,106.65A13.17,13.17,0,1,0,72.06,120,13.07,13.07,0,0,0,59,106.65Z"/><path class="cls-1" d="M104.59,106.67A12.9,12.9,0,0,0,91.46,119.9a13.14,13.14,0,0,0,26.27,0A12.89,12.89,0,0,0,104.59,106.67Z"/></svg>